<svg viewBox="0 0 480 360" xmlns="http://www.w3.org/2000/svg" role="img" aria-label="Gato descansando en forma de pan">
  <defs>
    <radialGradient id="f" cx=".5" cy=".3" r="1"><stop offset="0" stop-color="#1e2d20"/><stop offset="1" stop-color="#0f1810"/></radialGradient>
  </defs>
  <rect width="480" height="360" fill="url(#f)"/>
  <ellipse cx="240" cy="292" rx="160" ry="14" fill="#000" opacity=".3"/>
  <!-- pan de gato -->
  <path d="M96 284c0 -74 60 -118 144 -118s144 44 144 118z" fill="#6e7563"/>
  <path d="M120 284c8 -56 52 -88 120 -88s112 32 120 88z" fill="#7d846f"/>
  <!-- cola envuelta -->
  <path d="M110 282c-26 -4 -34 -30 -20 -50" stroke="#6e7563" stroke-width="22" fill="none" stroke-linecap="round"/>
  <!-- cabeza -->
  <circle cx="196" cy="180" r="46" fill="#6e7563"/>
  <polygon points="164,150 172,112 196,138" fill="#6e7563"/>
  <polygon points="228,150 220,112 196,138" fill="#6e7563"/>
  <!-- ojos dormidos -->
  <path d="M176 182c5 5 13 5 18 0" stroke="#232920" stroke-width="3.5" fill="none" stroke-linecap="round"/>
  <path d="M204 182c5 5 13 5 18 0" stroke="#232920" stroke-width="3.5" fill="none" stroke-linecap="round"/>
  <path d="M192 196l4 4l4 -4" stroke="#c08a6d" stroke-width="3" fill="none" stroke-linecap="round"/>
  <!-- zzz -->
  <g font-family="Arial, sans-serif" font-weight="bold" fill="#9dbe83">
    <text x="268" y="120" font-size="22">z</text>
    <text x="292" y="96" font-size="17" opacity=".8">z</text>
    <text x="312" y="76" font-size="13" opacity=".6">z</text>
  </g>
</svg>
